<?xml version="1.0" encoding="utf-8"?>
<!-- Generator: Adobe Illustrator 18.1.1, SVG Export Plug-In . SVG Version: 6.00 Build 0)  -->
<svg version="1.1" id="Layer_1" xmlns="http://www.w3.org/2000/svg" xmlns:xlink="http://www.w3.org/1999/xlink" x="0px" y="0px"
	 viewBox="0 0 163.8 28.2" enable-background="new 0 0 163.8 28.2" xml:space="preserve">
<g>
	<g>
		<defs>
			<rect id="SVGID_1_" x="-9.6" y="-4.5" width="184.5" height="38.6"/>
		</defs>
		<clipPath id="SVGID_2_">
			<use xlink:href="#SVGID_1_"  overflow="visible"/>
		</clipPath>
		<path clip-path="url(#SVGID_2_)" fill="#3BABE2" d="M40.4,23.8h-7.1c0.9-0.8,1.1-3.9,1.5-9.3l0.1-1.3c0.2-3.1,0.4-5.4,0.3-7.1
			c0-1.4-0.2-2.3-0.6-2.7h7.9c1.9,0,5.7,0.1,5.7,4.1c0,2.6-2.4,4.3-4.7,4.8c3.2,0.3,5.5,1.8,5.5,5.1C49.1,21,45.8,23.8,40.4,23.8
			 M40.1,14h-1.4l-0.2,3c-0.1,1.3-0.2,2.4-0.2,3.7c0,0.2,0.6,0.6,1.9,0.6c2.8,0,4.7-1.4,4.7-3.8C44.9,14.9,42.8,14,40.1,14
			 M40.7,5.9c-0.4,0-0.9,0-1.4,0.1c-0.2,1.4-0.3,2.8-0.4,4.3c0,0-0.1,1.3-0.1,1.2h0.5c2.6,0,4.9-0.9,4.9-3.3
			C44.3,6.9,43.1,5.9,40.7,5.9 M65.8,24c-1.7,0-1.9-0.1-3.3-4.8L62,17.4c-0.8,0.4-2.3,0.6-4.7,0.6h-2.4l-0.4,0.9
			c-0.4,0.9-1.4,2.9-1.4,4c0,0.3,0,0.5,0.1,0.9h-4.9c1.4-1.4,3.2-4.6,5.6-9.9l1.4-3C56.6,8.1,58,5,58,4.6c0-0.4-0.1-0.8-0.3-1.1h4.4
			c0,0,1.2,4.4,2.2,8l0.9,3.2c1.5,5.4,2.4,8,3.7,9C67.8,23.9,66.3,24,65.8,24 M59.4,8.2l-3.3,7.1h5.3L59.4,8.2 M85,24.6
			c-1.5,0-1.9-0.2-2.4-0.9L77,15.8c-0.4-0.6-0.8-1.1-1.5-1.1h-0.1l-0.1,1.5c-0.1,2.1-0.2,3.7-0.2,5c0,1.4,0.2,2.2,0.6,2.5h-5.5
			c0.8-0.7,1.1-3.1,1.5-9.3l0.1-1.3c0.2-3.1,0.4-5.4,0.3-7.1c0-1.4-0.2-2.3-0.6-2.7h7.5c2.4,0,5.8,0.4,5.8,4.4c0,3.3-2.2,5-4.9,5.9
			c0.3,0.2,0.7,0.8,1,1.2l4.1,5.5c2.6,3.4,2.8,3.6,3.7,4C87.6,24.6,86,24.6,85,24.6 M77.7,5.9c-0.5,0-1.1,0-1.6,0.1
			c-0.2,0.9-0.3,2.4-0.5,4.8l-0.1,1.4c0.3,0.1,0.6,0.1,0.9,0.1c2.5,0,4.3-1.5,4.3-3.8C80.7,6.9,79.6,5.9,77.7,5.9 M95.8,24.2
			c-5.2,0-8.3-4.3-8.3-9.2c0-6.7,3.7-11.9,10.6-11.9c2.2,0,3.2,0.4,5,0.4l-0.5,5.2c-1-1.8-2.6-3-4.8-3c-4.3,0-6.1,4.7-6.1,8.7
			c0,4.4,2.4,6.8,5.7,6.8c1.8,0,3.3-0.5,5.9-2.3C102.3,22.1,99.8,24.2,95.8,24.2 M131.6,24c-1.7,0-1.9-0.1-3.3-4.8l-0.5-1.8
			c-0.8,0.4-2.3,0.6-4.7,0.6h-2.4l-0.4,0.9c-0.6,1.3-1.4,2.9-1.4,4c0,0.3,0,0.6,0.1,0.9h-14.4c0.8-0.9,1.1-3.9,1.5-9.3l0.1-1.3
			c0.2-3.1,0.4-5.4,0.3-7.1c0-1.4-0.2-2.2-0.5-2.6h5.5c-0.8,0.6-1.1,3.9-1.4,9.3L110,14c-0.1,2-0.4,4-0.4,6c0,0.9,0.4,1.1,1.3,1.1
			c3.4,0,4.2-0.1,5.7-1.1c0.9-1.7,2-3.9,3.1-6.2l1.4-3c1.3-2.8,2.7-5.7,2.7-6.3c0-0.4-0.1-0.8-0.3-1.1h4.4c0,0,1.8,6.6,2.2,8
			l0.9,3.2c1.5,5.4,2.4,8,3.7,9C133.6,23.9,132.1,24,131.6,24 M125.2,8.2l-3.3,7.1h5.3L125.2,8.2 M144.3,12.8
			c-0.5,0.8-1.1,1.9-1.4,2.7c-0.3,1.5-0.5,3.5-0.5,5.7c0,0.9,0.2,2.2,0.6,2.6h-5.5c1-0.9,1.4-6.6,1.3-8.4c-0.7-2.6-1.7-5-3.3-8
			c-1-1.9-2.1-3.6-2.8-4c1.2-0.1,2.8-0.2,3.6-0.2c1.4,0,1.7,0.2,2.6,2c1.3,3,2.3,5.2,2.9,6.9c1.4-2.2,2.4-3.7,3.6-5.7
			c0.3-0.5,0.6-1.1,0.6-1.7c0-0.5-0.1-1-0.3-1.2h5.4C150.1,3.7,145.3,11.1,144.3,12.8 M162.7,8.3c-0.8-1.5-2.7-2.7-4.6-2.7
			c-1.7,0-3.3,0.7-3.3,2.6c0,1.6,1.9,2.6,3.9,3.9c2.2,1.4,4.4,3.1,4.4,6c0,3.8-3.7,6.2-8,6.2c-1.8,0-3.6-0.3-5.7-1.1l0.3-5.1
			c1,2,2.9,3.6,5.6,3.6c2.1,0,3.7-1,3.7-2.8c0-1.5-1.3-2.5-2.9-3.4c-3.3-2-5.4-3.6-5.4-6.5c0-4.3,3.6-5.8,7.4-5.8
			c2.2,0,3.6,0.4,4.9,0.4L162.7,8.3z"/>
		<g clip-path="url(#SVGID_2_)" enable-background="new    ">
			<g>
				<defs>
					<rect id="SVGID_3_" x="11.4" y="5.1" width="0.5" height="1.3"/>
				</defs>
				<clipPath id="SVGID_4_">
					<use xlink:href="#SVGID_3_"  overflow="visible"/>
				</clipPath>
				<g clip-path="url(#SVGID_4_)">
					<defs>
						<path id="SVGID_5_" d="M11.9,5.1C11.8,5.1,11.8,5.1,11.9,5.1c-0.1,0.2-0.2,0.8-0.5,1.3c0,0,0,0,0,0v0c0,0,0,0,0,0
							c0-0.1,0.2-0.4,0.4-0.8C11.8,5.4,11.8,5.2,11.9,5.1C11.9,5.1,11.9,5.1,11.9,5.1L11.9,5.1C11.9,5.1,11.9,5.1,11.9,5.1L11.9,5.1
							z"/>
					</defs>
					<clipPath id="SVGID_6_">
						<use xlink:href="#SVGID_5_"  overflow="visible"/>
					</clipPath>
					
						<linearGradient id="SVGID_7_" gradientUnits="userSpaceOnUse" x1="-237.9704" y1="378.696" x2="-236.971" y2="378.696" gradientTransform="matrix(-0.2879 1.0222 1.0222 0.2879 -443.845 139.456)">
						<stop  offset="0" style="stop-color:#36AFE5"/>
						<stop  offset="0.5677" style="stop-color:#38B0E6"/>
						<stop  offset="0.8216" style="stop-color:#3EB5E9"/>
						<stop  offset="1" style="stop-color:#48BDEE"/>
					</linearGradient>
					<polygon clip-path="url(#SVGID_6_)" fill="url(#SVGID_7_)" points="12.2,5.2 11.8,6.5 11,6.3 11.4,4.9 					"/>
				</g>
			</g>
		</g>
		<path clip-path="url(#SVGID_2_)" fill="#008BC2" d="M26.1,9.8L26.1,9.8c-0.1-1.4-0.5-2.7-1-3.6c-0.3-0.6-0.7-1.3-1.4-1.9
			c-0.3-0.3-0.8-0.5-1.3-0.6c-0.3-0.1-0.7-0.2-1.2-0.2c-0.7,0-1.5,0.2-2.1,0.9c-0.6,0.7-0.4,1.9,0.5,2.2c0,0,0,0,0,0c0,0,0,0,0,0
			c-0.1,0.3-0.6,0.8-1.9,0.7c-0.7,0-1.2-0.2-1.9-1c-0.4-0.6-0.6-1.7-0.6-2.8c0-0.7-0.1-1.2-0.3-1.8c-0.1-0.4-0.3-0.7-0.6-0.8
			c-0.2-0.2-0.4-0.3-0.8-0.4c-0.5-0.2-1.1-0.2-1.4-0.2c-0.7,0-0.9,0.1-1.1,0.4c0,0,0,0,0,0c0,0,0,0,0,0c-0.5,0-0.9,0-1.2,0.1
			C9.4,0.9,9,1.1,8.8,1.3C8.6,1.4,8.4,1.7,8.3,2c0,0.1,0,0.1,0,0.2c0,0.1,0,0.2,0,0.2c0,0.1,0,0.1,0,0.2c0,0.1,0,0.1,0.1,0.1v0v0
			c0.5-0.6,2.1-0.3,2.5,0.4c0.4,0.6,0.3,1.1,0.3,1.7c-0.1,0.9-0.5,2.2-2.1,2.4C8.4,7.4,7.3,7.4,6.8,6.6c0,0,0,0,0,0h0
			c1-0.3,1.1-1.5,0.5-2.2C6.3,3.3,4.9,3.5,4,3.7C2.6,4.1,1.8,5.2,1.3,6.2c-0.5,1-0.8,2.3-0.9,3.6c-0.1,1.3-0.1,2.4,0,3.4
			c0.1,1.6,0.4,2.6,0.8,3.7c0.4,1,0.9,2.1,1.5,3c0.4,0.6,0.5,0.8,0.5,0.8v0v0c0.1,0,0.1,0,0.5-0.5c0.2-0.2,0.8-1,1-1.3
			c0.2-0.3,0.5-0.8,0.7-1.1c0.2,0.1,0.2,0.3,0.2,0.5c0,0.2-0.1,0.5-0.2,1c-0.1,0.5-0.4,1.2-0.8,1.8c-0.3,0.5-0.6,0.9-0.3,1.1h0
			c0.2,0.2,0.7-0.2,0.9-0.3c0.2-0.1,0.9-0.7,1.8-2c0.6-0.9,1.1-1.7,1.6-2.8c0.1,0,0.1,0.1,0.1,0.1c0.1,0.1,0.1,0.3,0.1,0.5
			c-0.1,0.5-0.3,1.3-0.7,2.2c-0.4,1-1.2,2.2-2,3.3c-0.1,0.1-0.3,0.3-0.3,0.4c0,0.1,0.2,0.2,0.7,0.6c0.8,0.7,1.7,1.3,2.9,2
			c1,0.5,2.7,1.4,3.7,1.7v0v0c1.1-0.3,2.8-1.1,3.7-1.7c1.2-0.7,2.1-1.3,2.9-2c0.5-0.4,0.7-0.5,0.7-0.6h0h0c0-0.1-0.2-0.3-0.3-0.4
			c-0.8-1.1-1.6-2.2-2-3.3c-0.4-0.9-0.7-1.7-0.7-2.2c0-0.2,0-0.4,0.1-0.5c0-0.1,0.1-0.1,0.1-0.1c0.5,1,1,1.9,1.6,2.8
			c0.9,1.2,1.6,1.8,1.8,2c0.2,0.2,0.7,0.5,0.9,0.3c0.3-0.2,0-0.6-0.3-1.1c-0.3-0.6-0.6-1.3-0.8-1.8c-0.1-0.5-0.2-0.8-0.2-1
			c0-0.2,0.1-0.4,0.2-0.5c0.2,0.4,0.5,0.9,0.7,1.1c0.2,0.3,0.8,1.1,1,1.3c0.4,0.4,0.4,0.5,0.5,0.5v0v0c0.1,0,0.2-0.1,0.5-0.8
			c0.6-0.9,1.1-2,1.5-3c0.4-1.1,0.7-2.1,0.8-3.7C26.1,12.1,26.2,11.1,26.1,9.8 M25.4,13.2c-0.1,1.2-0.4,2.4-0.8,3.5
			c-0.4,1.1-0.9,2-1.4,3c0,0,0,0.1,0,0.1c0,0-0.1-0.1-0.2-0.2c-0.2-0.2-0.7-0.8-0.9-1.1c-0.2-0.3-0.8-1.3-1-1.7c0,0,0,0,0,0v0
			c-0.8,0.5-0.9,0.9-1,1.4c0,0.6,0.4,1.8,1.2,3.1c0,0.1,0.1,0.2,0.2,0.3h0h0c0,0-0.1-0.1-0.2-0.3c-0.2-0.2-0.8-0.9-1.4-1.8
			c-0.6-0.9-1.5-2.3-2-3.6c0,0,0,0,0,0c0,0,0,0,0,0c-0.6,0.3-0.9,0.6-1.1,1c-0.2,0.5-0.1,1.5,0.6,3.1c0.5,1.1,1.1,2.1,1.8,3.1
			c0.1,0.1,0.2,0.3,0.3,0.4c-0.1,0.1-0.1,0.1-0.2,0.2c-0.8,0.6-1.8,1.3-2.8,1.9c-1,0.6-2.4,1.2-3.4,1.5c-1-0.2-2.4-0.9-3.4-1.5
			c-0.9-0.5-2-1.3-2.8-1.9c-0.1-0.1-0.2-0.1-0.2-0.2h0c0.1-0.1,0.2-0.3,0.3-0.4c0.7-1.1,1.4-2.1,1.8-3.1c0.7-1.5,0.8-2.6,0.6-3.1
			c-0.2-0.4-0.4-0.7-1.1-1c0,0,0,0,0,0c0,0,0,0,0,0c-0.5,1.3-1.3,2.7-2,3.6c-0.6,0.9-1.3,1.6-1.4,1.8c-0.1,0.1-0.2,0.2-0.2,0.3
			C4.9,21.6,5,21.5,5,21.4c0.7-1.3,1.2-2.6,1.2-3.1c0-0.5-0.2-0.9-1-1.4c0,0,0,0,0,0c0,0,0,0,0,0c-0.2,0.4-0.8,1.4-1,1.7
			c-0.2,0.3-0.6,0.8-0.9,1.1c-0.1,0.1-0.2,0.2-0.2,0.2c0,0,0-0.1,0-0.1c-0.5-1-1-1.9-1.4-3c-0.4-1.1-0.7-2.3-0.8-3.5
			c-0.1-1-0.1-2.2,0-3.4c0.1-1,0.4-2.4,0.9-3.3c0.4-0.8,1.2-1.8,2.3-2.1C5,4.1,6.2,4,6.7,4.8c0.5,0.7-0.2,1.5-0.8,1.4c0,0,0,0,0,0
			c0,0,0,0,0,0C6.3,8,8.4,8.1,9.2,7.9c2.1-0.4,2.6-2.3,2.7-3c0.1-0.6,0.1-1.7-0.5-2.4C10.9,2.1,9.6,1.5,8.7,2C8.8,1.8,8.9,1.7,9,1.6
			c0.4-0.3,0.8-0.4,1-0.4c0.3,0,0.7-0.1,1.4,0c0,0,0,0,0,0s0,0,0,0c0.1-0.3,0.4-0.4,0.8-0.4c0.5,0,0.8,0.1,1.2,0.2
			c0.5,0.1,0.8,0.5,1,1c0.2,0.5,0.2,1,0.3,1.6c0.1,0.9,0.1,2,0.7,3.2C15.9,7.5,17,8,17.8,8c1.7,0,2.6-0.9,2.8-1.8c0,0,0,0,0,0
			c0,0,0,0,0,0c-0.6,0.1-1.3-0.7-0.8-1.4c0.5-0.7,1.7-0.7,2.6-0.4c1,0.3,1.9,1.4,2.3,2.1c0.5,1,0.8,2.3,0.9,3.3
			C25.5,10.9,25.5,12.2,25.4,13.2"/>
	</g>
	<g>
		<defs>
			<path id="SVGID_8_" d="M4.9,21.7L4.9,21.7L4.9,21.7z M8.5,16.1L8.5,16.1L8.5,16.1z M8.5,16.1L8.5,16.1L8.5,16.1z M5.9,6.2
				L5.9,6.2C5.9,6.2,5.9,6.2,5.9,6.2 M11.5,1.2C11.5,1.2,11.5,1.2,11.5,1.2C11.5,1.2,11.5,1.2,11.5,1.2 M11.5,1.2
				c-0.7-0.1-1.2,0-1.4,0c-0.3,0-0.6,0.1-1,0.4C8.9,1.7,8.8,1.8,8.7,2c0.9-0.4,2.2,0.1,2.7,0.6C12,3.2,11.9,4.3,11.8,5
				c-0.1,0.7-0.5,2.6-2.7,3C8.4,8.1,6.3,8,5.9,6.2c0,0,0,0,0,0c0.6,0.1,1.3-0.7,0.8-1.4C6.2,4,5,4.1,4.1,4.3
				C3.1,4.6,2.2,5.7,1.8,6.4C1.4,7.4,1,8.7,1,9.8c-0.1,1.2-0.1,2.4,0,3.4c0.1,1.2,0.4,2.4,0.8,3.5c0.4,1.1,0.9,2,1.4,3
				c0,0,0,0.1,0,0.1c0,0,0.1-0.1,0.2-0.2c0.2-0.2,0.7-0.8,0.9-1.1c0.2-0.3,0.8-1.3,1-1.7c0,0,0,0,0,0c0,0,0,0,0,0
				c0.8,0.5,0.9,0.9,1,1.4c0,0.6-0.4,1.8-1.2,3.1c0,0.1-0.1,0.2-0.2,0.3c0,0,0.1-0.1,0.2-0.3c0.2-0.2,0.8-0.9,1.4-1.8
				c0.6-0.9,1.5-2.3,2-3.6c0,0,0,0,0,0c0,0,0,0,0,0c0.6,0.3,0.9,0.6,1.1,1c0.2,0.5,0.1,1.5-0.6,3.1c-0.5,1.1-1.1,2.1-1.8,3.1
				c-0.1,0.1-0.2,0.3-0.3,0.4h0C6.9,23.7,7,23.8,7,23.8c0.8,0.6,1.8,1.3,2.8,1.9c1,0.6,2.4,1.2,3.4,1.5c1-0.2,2.4-0.9,3.4-1.5
				c0.9-0.6,2-1.3,2.8-1.9c0.1-0.1,0.2-0.1,0.2-0.2c-0.1-0.1-0.2-0.3-0.3-0.4c-0.7-1.1-1.4-2.1-1.8-3.1c-0.7-1.5-0.8-2.6-0.6-3.1
				c0.2-0.4,0.4-0.7,1.1-1c0,0,0,0,0,0c0,0,0,0,0,0c0.5,1.3,1.3,2.7,2,3.6c0.6,0.9,1.3,1.6,1.4,1.8c0.1,0.1,0.2,0.2,0.2,0.3h0h0
				c-0.1-0.1-0.1-0.2-0.2-0.3c-0.7-1.3-1.2-2.6-1.2-3.1c0-0.5,0.2-0.9,1-1.4v0c0,0,0,0,0,0c0.2,0.4,0.8,1.4,1,1.7
				c0.2,0.3,0.7,0.8,0.9,1.1c0.1,0.1,0.2,0.2,0.2,0.2v0v0c0,0,0-0.1,0-0.1c0.5-1,1-1.9,1.4-3c0.4-1.1,0.7-2.3,0.8-3.5
				c0.1-1,0.1-2.2,0-3.4c-0.1-1-0.4-2.4-0.9-3.3c-0.4-0.8-1.2-1.8-2.3-2.1c-0.9-0.2-2.1-0.3-2.6,0.4c-0.5,0.7,0.2,1.5,0.8,1.4
				c0,0,0,0,0,0c0,0,0,0,0,0c-0.2,0.9-1,1.8-2.8,1.8c-0.8,0-1.9-0.5-2.4-1.3c-0.7-1.1-0.6-2.2-0.7-3.2c-0.1-0.5-0.1-1-0.3-1.6
				c-0.2-0.5-0.5-0.8-1-1c-0.4-0.1-0.7-0.2-1.2-0.2c-0.1,0-0.1,0-0.2,0C11.8,0.8,11.5,0.9,11.5,1.2"/>
		</defs>
		<clipPath id="SVGID_9_">
			<use xlink:href="#SVGID_8_"  overflow="visible"/>
		</clipPath>
		
			<radialGradient id="SVGID_10_" cx="-326.7056" cy="316.9103" r="1.0001" gradientTransform="matrix(25.141 0 0 -25.1561 8216.5996 7977.4941)" gradientUnits="userSpaceOnUse">
			<stop  offset="0" style="stop-color:#44C1F0"/>
			<stop  offset="3.804281e-02" style="stop-color:#42BDEE"/>
			<stop  offset="0.1694" style="stop-color:#3EB3E7"/>
			<stop  offset="0.3147" style="stop-color:#3BADE3"/>
			<stop  offset="0.5" style="stop-color:#3BABE2"/>
			<stop  offset="0.5704" style="stop-color:#2EA3DB"/>
			<stop  offset="0.75" style="stop-color:#0090CA"/>
			<stop  offset="1" style="stop-color:#006A98"/>
		</radialGradient>
		<rect x="0.9" y="0.8" clip-path="url(#SVGID_9_)" fill="url(#SVGID_10_)" width="24.6" height="26.4"/>
	</g>
</g>
</svg>
