<?xml version="1.0" encoding="utf-8"?>
<!-- Generator: Adobe Illustrator 18.1.1, SVG Export Plug-In . SVG Version: 6.00 Build 0)  -->
<svg version="1.1" id="Layer_2" xmlns="http://www.w3.org/2000/svg" xmlns:xlink="http://www.w3.org/1999/xlink" x="0px" y="0px"
	 viewBox="0 69.6 595.3 659.3" enable-background="new 0 69.6 595.3 659.3" xml:space="preserve">
<rect y="288.6" fill="#FFFFFF" width="595.3" height="440.3"/>
<g>
	<path fill="#017EB8" d="M143.8,602.7c10.5,6.7,34.8,17.2,60.4,17.2c47.4,0,62.1-30.2,61.7-52.9c-0.4-38.2-34.8-54.6-70.5-54.6
		h-20.6v-27.7h20.6c26.9,0,60.8-13.8,60.8-46.2c0-21.8-13.8-41.1-47.8-41.1c-21.8,0-42.8,9.7-54.6,18l-9.7-26.9
		c14.3-10.5,42-21,71.3-21c53.7,0,78,31.9,78,65c0,28.1-16.8,52-50.4,64.2v0.8c33.6,6.7,60.8,31.9,60.8,70.1
		c0,43.6-34,81.8-99.5,81.8c-30.6,0-57.5-9.7-70.9-18.5L143.8,602.7z"/>
	<path fill="#017EB8" d="M408.3,406.8h-0.8L360,432.4l-7.1-28.1l59.6-31.9h31.5v272.8h-35.7V406.8z"/>
</g>
<path fill="#FFFFFF" d="M174,69.6h-35c-6.6,0-12,5.4-12,12v132.3c0,6.6,5.4,12,12,12h35c6.6,0,12-5.4,12-12V81.6
	C186,75,180.6,69.6,174,69.6z"/>
<path fill="#FFFFFF" d="M461.4,69.6h-35c-6.6,0-12,5.4-12,12v132.3c0,6.6,5.4,12,12,12h35c6.6,0,12-5.4,12-12V81.6
	C473.4,75,468,69.6,461.4,69.6z"/>
</svg>
