<?xml version="1.0" encoding="utf-8"?>
<!-- Generator: Adobe Illustrator 18.1.1, SVG Export Plug-In . SVG Version: 6.00 Build 0)  -->
<svg version="1.1" id="Layer_1" xmlns="http://www.w3.org/2000/svg" xmlns:xlink="http://www.w3.org/1999/xlink" x="0px" y="0px"
	 viewBox="0 0 46 46" enable-background="new 0 0 46 46" xml:space="preserve">
<path fill="#017EB7" d="M38,17.8L23.5,32.4l-2.7,2.7c-0.4,0.4-0.9,0.6-1.4,0.6s-1-0.2-1.4-0.6l-2.7-2.7L8,25.1
	c-0.4-0.4-0.6-0.9-0.6-1.4c0-0.5,0.2-1,0.6-1.4l2.7-2.7c0.4-0.4,0.9-0.6,1.4-0.6s1,0.2,1.4,0.6l5.9,5.9l13.2-13.2
	c0.4-0.4,0.9-0.6,1.4-0.6s1,0.2,1.4,0.6l2.7,2.7c0.4,0.4,0.6,0.9,0.6,1.4S38.4,17.5,38,17.8z"/>
</svg>
