<?xml version="1.0" encoding="utf-8"?>
<!-- Generator: Adobe Illustrator 18.1.1, SVG Export Plug-In . SVG Version: 6.00 Build 0)  -->
<svg version="1.1" id="Layer_1" xmlns="http://www.w3.org/2000/svg" xmlns:xlink="http://www.w3.org/1999/xlink" x="0px" y="0px"
	 viewBox="0 0 595.3 841.9" enable-background="new 0 0 595.3 841.9" xml:space="preserve">
<path fill="#FFFFFF" d="M365.8,244.8c8.9,0,17.7,3.7,24,9.8l19.8,19.8c6.1,6.3,9.8,15,9.8,24s-3.7,17.7-9.8,23.8L281.2,450.6
	L409.5,579c6.1,6.1,9.8,14.9,9.8,23.8s-3.7,17.7-9.8,24l-19.8,19.5c-6.3,6.3-15,10-24,10s-17.7-3.7-23.8-10l-172-172
	c-6.3-6.1-10-14.8-10-23.8c0-8.9,3.7-17.7,10-24l172-172C348,248.5,356.7,244.8,365.8,244.8z"/>
</svg>
