<?xml version="1.0" encoding="utf-8"?>
<!-- Generator: Adobe Illustrator 18.1.1, SVG Export Plug-In . SVG Version: 6.00 Build 0)  -->
<svg version="1.1" id="Layer_1" xmlns="http://www.w3.org/2000/svg" xmlns:xlink="http://www.w3.org/1999/xlink" x="0px" y="0px"
	 viewBox="0 0 595.3 841.9" enable-background="new 0 0 595.3 841.9" xml:space="preserve">
<path fill="#666666" d="M237.4,254.5l172,172c6.3,6.3,10,15.1,10,24c0,9-3.7,17.7-10,23.8l-172,172c-6.1,6.3-14.8,10-23.8,10
	s-17.7-3.7-24-10l-19.8-19.5c-6.1-6.3-9.8-15.1-9.8-24c0-8.9,3.7-17.7,9.8-23.8l128.3-128.4L169.7,322.2c-6.1-6.1-9.8-14.8-9.8-23.8
	c0-9,3.7-17.7,9.8-24l19.8-19.8c6.3-6.1,15.1-9.8,24-9.8C222.6,244.8,231.3,248.5,237.4,254.5z"/>
</svg>
