<?xml version="1.0" encoding="utf-8"?>
<!-- Generator: Adobe Illustrator 18.1.1, SVG Export Plug-In . SVG Version: 6.00 Build 0)  -->
<svg version="1.1" id="Layer_1" xmlns="http://www.w3.org/2000/svg" xmlns:xlink="http://www.w3.org/1999/xlink" x="0px" y="0px"
	 viewBox="0 0 595.3 841.9" enable-background="new 0 0 595.3 841.9" xml:space="preserve">
<path fill="#017EB7" d="M93.6,502.8l172-172c6.3-6.3,15.1-10,24-10c9,0,17.7,3.7,23.8,10l172,172c6.3,6.1,10,14.8,10,23.8
	s-3.7,17.7-10,24l-19.5,19.8c-6.3,6.1-15.1,9.8-24,9.8s-17.7-3.7-23.8-9.8L289.7,442.1L161.3,570.5c-6.1,6.1-14.8,9.8-23.8,9.8
	s-17.7-3.7-24-9.8l-19.8-19.8c-6.1-6.3-9.8-15.1-9.8-24C83.9,517.6,87.6,508.9,93.6,502.8z"/>
</svg>
