<?xml version="1.0" encoding="utf-8"?>
<!-- Generator: Adobe Illustrator 18.1.1, SVG Export Plug-In . SVG Version: 6.00 Build 0)  -->
<svg version="1.1" id="Layer_1" xmlns="http://www.w3.org/2000/svg" xmlns:xlink="http://www.w3.org/1999/xlink" x="0px" y="0px"
	 viewBox="0 0 595.3 841.9" enable-background="new 0 0 595.3 841.9" xml:space="preserve">
<path fill="#666666" d="M341.9,646.6l-172-172c-6.3-6.3-10-15.1-10-24c0-9,3.7-17.7,10-23.8l172-172c6.1-6.3,14.8-10,23.8-10
	s17.7,3.7,24,10l19.8,19.5c6.1,6.3,9.8,15.1,9.8,24c0,8.9-3.7,17.7-9.8,23.8L281.2,450.5l128.4,128.4c6.1,6.1,9.8,14.8,9.8,23.8
	s-3.7,17.7-9.8,24l-19.8,19.8c-6.3,6.1-15.1,9.8-24,9.8C356.7,656.3,348,652.6,341.9,646.6z"/>
</svg>
