<?xml version="1.0" encoding="utf-8"?>
<!-- Generator: Adobe Illustrator 18.1.1, SVG Export Plug-In . SVG Version: 6.00 Build 0)  -->
<svg version="1.1" id="Layer_1" xmlns="http://www.w3.org/2000/svg" xmlns:xlink="http://www.w3.org/1999/xlink" x="0px" y="0px"
	 viewBox="0 0 595.3 841.9" enable-background="new 0 0 595.3 841.9" xml:space="preserve">
<path fill="#666666" d="M431,634.8l-34,34c-4.5,4.5-10.7,7-17,7s-12.5-2.5-17-7l-73.4-73.4l-73.4,73.4c-4.5,4.5-10.7,7-17,7
	c-6.2,0-12.5-2.5-17-7l-34-34c-4.5-4.5-7-10.7-7-17c0-6.2,2.5-12.5,7-17l73.4-73.4L148.3,454c-4.5-4.5-7-10.7-7-17
	c0-6.2,2.5-12.5,7-17l34-34c4.5-4.5,10.7-7,17-7c6.3,0,12.5,2.5,17,7l73.4,73.4l73.4-73.4c4.5-4.5,10.7-7,17-7c6.2,0,12.5,2.5,17,7
	l34,34c4.5,4.5,7,10.7,7,17s-2.5,12.5-7,17l-73.4,73.4l73.4,73.4c4.5,4.5,7,10.7,7,17C438,624,435.5,630.3,431,634.8z"/>
</svg>
