<?xml version="1.0" encoding="UTF-8"?>
<svg width="24px" height="24px" viewBox="0 0 24 24" version="1.1" xmlns="http://www.w3.org/2000/svg" xmlns:xlink="http://www.w3.org/1999/xlink">
    <!-- Generator: Sketch 45.2 (43514) - http://www.bohemiancoding.com/sketch -->
    <title>Contact Us</title>
    <desc>Created with Sketch.</desc>
    <defs></defs>
    <g id="Page-1" stroke="none" stroke-width="1" fill="none" fill-rule="evenodd">
        <g id="Contact-Us" stroke="#0074A6">
            <path d="M17.2387056,22.4999997 C14.423202,22.5008738 11.0622547,20.5866972 7.21879948,16.7889358 C2.70927358,12.2255038 0.854415279,8.34558148 1.69793001,5.24968489 L1.75911761,5.02592726 L5.16202211,1.62323799 L5.42250645,1.57166885 C6.79747917,1.29371992 8.02560165,1.83912914 8.54219979,2.94917676 L9.76158119,5.98913394 C10.1540559,6.97069573 9.92241716,8.08511361 9.17155794,8.82805887 L8.79132073,9.20477582 C8.48975328,9.50282798 8.43730677,9.96345403 8.66807142,10.2990905 C9.3219046,11.2509345 10.098113,12.1582017 10.976592,12.9955447 C11.8428336,13.902812 12.7492841,14.6798453 13.7011883,15.3327631 C14.036846,15.5635132 14.4975012,15.5101959 14.7964463,15.2086475 L15.1731871,14.8301825 C15.9153052,14.0776226 17.0280454,13.8486207 18.0114175,14.2393225 L21.0087356,15.4393976 C22.163433,15.9743182 22.7036321,17.1997408 22.4300361,18.5781228 L22.3784637,18.8385907 L18.9755592,22.2404059 L18.7517874,22.3015896 C18.2666572,22.4344457 17.7622966,22.4999997 17.2387056,22.4999997 L17.2387056,22.4999997 Z" id="Contact_us_icon"></path>
        </g>
    </g>
</svg>