<?xml version="1.0" encoding="utf-8"?>
<!-- Generator: Adobe Illustrator 18.1.1, SVG Export Plug-In . SVG Version: 6.00 Build 0)  -->
<svg version="1.1" id="Layer_1" xmlns:sketch="http://www.bohemiancoding.com/sketch/ns"
	 xmlns="http://www.w3.org/2000/svg" xmlns:xlink="http://www.w3.org/1999/xlink" x="0px" y="0px" viewBox="-290.2 404.4 23.1 33.2"
	 enable-background="new -290.2 404.4 23.1 33.2" xml:space="preserve">
<title>Group Copy 2</title>
<desc>Created with Sketch.</desc>
<g id="Page-1" sketch:type="MSPage">
	<g id="Contacts-New-Contact-OBM" transform="translate(-1058.000000, -1044.000000)" sketch:type="MSArtboardGroup">
		<g id="Group-Copy-3" transform="translate(973.000000, 1044.000000)" sketch:type="MSLayerGroup">
			<g id="Group-Copy-2" transform="translate(85.000000, 0.000000)" sketch:type="MSShapeGroup">
				<g id="Grip-dot-Copy-26" transform="translate(0.000000, 7.000000)">
					
						<linearGradient id="Rectangle-1-Copy-156_9_" gradientUnits="userSpaceOnUse" x1="-517.9672" y1="732.9492" x2="-517.6909" y2="732.2534" gradientTransform="matrix(5 0 0 -4 2304 3339.01)">
						<stop  offset="0" style="stop-color:#CFDBE1"/>
						<stop  offset="1" style="stop-color:#3B5972"/>
					</linearGradient>
					<path id="Rectangle-1-Copy-156" fill="#7F99B2" fill-opacity="0.1939" stroke="url(#Rectangle-1-Copy-156_9_)" d="M-286,405.9
						h1c1.1,0,2,0.9,2,2l0,0c0,1.1-0.9,2-2,2h-1c-1.1,0-2-0.9-2-2l0,0C-288,406.8-287.1,405.9-286,405.9z"/>
				</g>
				<g id="Grip-dot-Copy-18" transform="translate(7.000000, 7.000000)">
					
						<linearGradient id="Rectangle-1-Copy-156_19_" gradientUnits="userSpaceOnUse" x1="-524.9672" y1="732.9492" x2="-524.6909" y2="732.2534" gradientTransform="matrix(5 0 0 -4 2339 3339.01)">
						<stop  offset="0" style="stop-color:#CFDBE1"/>
						<stop  offset="1" style="stop-color:#3B5972"/>
					</linearGradient>
					<path id="Rectangle-1-Copy-156_1_" fill="#7F99B2" fill-opacity="0.1939" stroke="url(#Rectangle-1-Copy-156_19_)" d="
						M-286,405.9h1c1.1,0,2,0.9,2,2l0,0c0,1.1-0.9,2-2,2h-1c-1.1,0-2-0.9-2-2l0,0C-288,406.8-287.1,405.9-286,405.9z"/>
				</g>
				<g id="Grip-dot-Copy-19" transform="translate(14.000000, 7.000000)">
					
						<linearGradient id="Rectangle-1-Copy-156_20_" gradientUnits="userSpaceOnUse" x1="-531.9672" y1="732.9492" x2="-531.6909" y2="732.2534" gradientTransform="matrix(5 0 0 -4 2374 3339.01)">
						<stop  offset="0" style="stop-color:#CFDBE1"/>
						<stop  offset="1" style="stop-color:#3B5972"/>
					</linearGradient>
					<path id="Rectangle-1-Copy-156_2_" fill="#7F99B2" fill-opacity="0.1939" stroke="url(#Rectangle-1-Copy-156_20_)" d="
						M-286,405.9h1c1.1,0,2,0.9,2,2l0,0c0,1.1-0.9,2-2,2h-1c-1.1,0-2-0.9-2-2l0,0C-288,406.8-287.1,405.9-286,405.9z"/>
				</g>
				<g id="Grip-dot-Copy-20" transform="translate(0.000000, 13.000000)">
					
						<linearGradient id="Rectangle-1-Copy-156_21_" gradientUnits="userSpaceOnUse" x1="-517.9672" y1="726.9492" x2="-517.6909" y2="726.2534" gradientTransform="matrix(5 0 0 -4 2304 3315.01)">
						<stop  offset="0" style="stop-color:#CFDBE1"/>
						<stop  offset="1" style="stop-color:#3B5972"/>
					</linearGradient>
					<path id="Rectangle-1-Copy-156_3_" fill="#7F99B2" fill-opacity="0.1939" stroke="url(#Rectangle-1-Copy-156_21_)" d="
						M-286,405.9h1c1.1,0,2,0.9,2,2l0,0c0,1.1-0.9,2-2,2h-1c-1.1,0-2-0.9-2-2l0,0C-288,406.8-287.1,405.9-286,405.9z"/>
				</g>
				<g id="Grip-dot-Copy-21" transform="translate(7.000000, 13.000000)">
					
						<linearGradient id="Rectangle-1-Copy-156_22_" gradientUnits="userSpaceOnUse" x1="-524.9672" y1="726.9492" x2="-524.6909" y2="726.2534" gradientTransform="matrix(5 0 0 -4 2339 3315.01)">
						<stop  offset="0" style="stop-color:#CFDBE1"/>
						<stop  offset="1" style="stop-color:#3B5972"/>
					</linearGradient>
					<path id="Rectangle-1-Copy-156_4_" fill="#7F99B2" fill-opacity="0.1939" stroke="url(#Rectangle-1-Copy-156_22_)" d="
						M-286,405.9h1c1.1,0,2,0.9,2,2l0,0c0,1.1-0.9,2-2,2h-1c-1.1,0-2-0.9-2-2l0,0C-288,406.8-287.1,405.9-286,405.9z"/>
				</g>
				<g id="Grip-dot-Copy-22" transform="translate(14.000000, 13.000000)">
					
						<linearGradient id="Rectangle-1-Copy-156_23_" gradientUnits="userSpaceOnUse" x1="-531.9672" y1="726.9492" x2="-531.6909" y2="726.2534" gradientTransform="matrix(5 0 0 -4 2374 3315.01)">
						<stop  offset="0" style="stop-color:#CFDBE1"/>
						<stop  offset="1" style="stop-color:#3B5972"/>
					</linearGradient>
					<path id="Rectangle-1-Copy-156_5_" fill="#7F99B2" fill-opacity="0.1939" stroke="url(#Rectangle-1-Copy-156_23_)" d="
						M-286,405.9h1c1.1,0,2,0.9,2,2l0,0c0,1.1-0.9,2-2,2h-1c-1.1,0-2-0.9-2-2l0,0C-288,406.8-287.1,405.9-286,405.9z"/>
				</g>
				<g id="Grip-dot-Copy-23" transform="translate(0.000000, 19.000000)">
					
						<linearGradient id="Rectangle-1-Copy-156_24_" gradientUnits="userSpaceOnUse" x1="-517.9672" y1="720.9492" x2="-517.6909" y2="720.2534" gradientTransform="matrix(5 0 0 -4 2304 3291.01)">
						<stop  offset="0" style="stop-color:#CFDBE1"/>
						<stop  offset="1" style="stop-color:#3B5972"/>
					</linearGradient>
					<path id="Rectangle-1-Copy-156_6_" fill="#7F99B2" fill-opacity="0.1939" stroke="url(#Rectangle-1-Copy-156_24_)" d="
						M-286,405.9h1c1.1,0,2,0.9,2,2l0,0c0,1.1-0.9,2-2,2h-1c-1.1,0-2-0.9-2-2l0,0C-288,406.8-287.1,405.9-286,405.9z"/>
				</g>
				<g id="Grip-dot-Copy-24" transform="translate(7.000000, 19.000000)">
					
						<linearGradient id="Rectangle-1-Copy-156_25_" gradientUnits="userSpaceOnUse" x1="-524.9672" y1="720.9492" x2="-524.6909" y2="720.2534" gradientTransform="matrix(5 0 0 -4 2339 3291.01)">
						<stop  offset="0" style="stop-color:#CFDBE1"/>
						<stop  offset="1" style="stop-color:#3B5972"/>
					</linearGradient>
					<path id="Rectangle-1-Copy-156_7_" fill="#7F99B2" fill-opacity="0.1939" stroke="url(#Rectangle-1-Copy-156_25_)" d="
						M-286,405.9h1c1.1,0,2,0.9,2,2l0,0c0,1.1-0.9,2-2,2h-1c-1.1,0-2-0.9-2-2l0,0C-288,406.8-287.1,405.9-286,405.9z"/>
				</g>
				<g id="Grip-dot-Copy-25" transform="translate(14.000000, 19.000000)">
					
						<linearGradient id="Rectangle-1-Copy-156_26_" gradientUnits="userSpaceOnUse" x1="-531.9672" y1="720.9492" x2="-531.6909" y2="720.2534" gradientTransform="matrix(5 0 0 -4 2374 3291.01)">
						<stop  offset="0" style="stop-color:#CFDBE1"/>
						<stop  offset="1" style="stop-color:#3B5972"/>
					</linearGradient>
					<path id="Rectangle-1-Copy-156_8_" fill="#7F99B2" fill-opacity="0.1939" stroke="url(#Rectangle-1-Copy-156_26_)" d="
						M-286,405.9h1c1.1,0,2,0.9,2,2l0,0c0,1.1-0.9,2-2,2h-1c-1.1,0-2-0.9-2-2l0,0C-288,406.8-287.1,405.9-286,405.9z"/>
				</g>
				<polygon id="Triangle-203" fill="#042A4A" points="-278.5,406.4 -275,409.4 -282,409.4 				"/>
				<polygon id="Triangle-203_1_" fill="#042A4A" points="-278.5,435.4 -282,432.4 -275,432.4 				"/>
			</g>
		</g>
	</g>
</g>
</svg>
