<?xml version="1.0" encoding="utf-8"?>
<!-- Generator: Adobe Illustrator 18.1.1, SVG Export Plug-In . SVG Version: 6.00 Build 0)  -->
<svg version="1.1" id="Layer_1" xmlns="http://www.w3.org/2000/svg" xmlns:xlink="http://www.w3.org/1999/xlink" x="0px" y="0px"
	 viewBox="0 0 595.3 841.9" enable-background="new 0 0 595.3 841.9" xml:space="preserve">
<g id="Layer_1_1_" xmlns:sketch="http://www.bohemiancoding.com/sketch/ns" display="none">
	<title>Home</title>
	<desc>Created with Sketch.</desc>
	<g id="Page-1" sketch:type="MSPage" display="inline">
		<g id="Home" sketch:type="MSArtboardGroup">
			<path id="Triangle-95-Copy-2" sketch:type="MSShapeGroup" d="M425.6,363.9l-126-119.7L2,527l0,0l46.6,46.6l251-238.5l251,238.5
				l46.6-46.6l0,0L498,432.7V296.1h-72.4L425.6,363.9L425.6,363.9z M299.6,395L498,583.5H101.2L299.6,395z M101.2,583.5h396.9v248
				H101.2V583.5z M230.2,633.1h138.9v198.4H230.2V633.1z"/>
		</g>
	</g>
</g>
<g id="Layer_2">
	<polygon fill="#00AEEF" points="550.9,583.7 595.9,538.8 487.9,430.7 487.9,306.8 425.6,306.8 425.6,374 295.7,244.5 2,537.7 
		48.6,584.2 299.6,333.1 	"/>
	<polygon fill="#00AEEF" points="101.2,594.2 299.6,396.1 498.1,594.2 498.1,839.5 369.1,839.5 369.1,643.8 230.2,643.8 
		230.2,839.5 101.2,839.5 	"/>
</g>
</svg>
