<?xml version="1.0" encoding="utf-8"?>
<!-- Generator: Adobe Illustrator 18.1.1, SVG Export Plug-In . SVG Version: 6.00 Build 0)  -->
<svg version="1.1" id="Layer_1" xmlns="http://www.w3.org/2000/svg" xmlns:xlink="http://www.w3.org/1999/xlink" x="0px" y="0px"
	 viewBox="109.6 380.5 363 346.5" enable-background="new 109.6 380.5 363 346.5" xml:space="preserve">
<path fill="#666666" d="M430.9,692.2l-3.1,3.2c-4.5,4.5-10.7,7-17,7s-12.5-2.5-17-7L289.6,590.9L185.2,695.4c-4.5,4.5-10.7,7-17,7
	c-6.2,0-12.5-2.5-17-7l-3.2-3.2c-4.5-4.5-7-10.7-7-17c0-6.2,2.5-12.5,7-17l104.4-104.5L148.3,449.5c-4.5-4.5-7-10.7-7-17
	c0-6.2,2.5-12.5,7-17l3.1-3.2c4.5-4.5,10.7-7,17-7c6.3,0,12.5,2.5,17,7l104.2,104.2l104.3-104.2c4.5-4.5,10.7-7,17-7
	c6.2,0,12.5,2.5,17,7l3.2,3.2c4.5,4.5,7,10.7,7,17s-2.5,12.5-7,17L326.8,553.7L431,658.2c4.5,4.5,7,10.7,7,17
	C437.9,681.4,435.4,687.7,430.9,692.2z"/>
</svg>
