<?xml version="1.0" encoding="utf-8"?>
<!-- Generator: Adobe Illustrator 18.1.1, SVG Export Plug-In . SVG Version: 6.00 Build 0)  -->
<svg version="1.1" id="Layer_1" xmlns="http://www.w3.org/2000/svg" xmlns:xlink="http://www.w3.org/1999/xlink" x="0px" y="0px"
	 viewBox="-41 164.9 512 512" enable-background="new -41 164.9 512 512" xml:space="preserve">
<path fill="#007EB6" d="M427,282.4L316.9,172.9H74.6c-16.8,0-30.6,12.9-30.6,29.6v156.6c0,0,1-0.2,1.7-0.2H59V202.5
	c0-8.4,7.2-14.6,15.6-14.6h235.6l4.8,4.5V254c0,16.7,13.6,29.9,30.3,29.9h61.6l4.1,4.8v349.6c0,8.4-5.8,15.7-14.2,15.7H74.6
	c-8.4,0-15.6-7.3-15.6-15.7v-60.3H45.7c-0.7,0-1.7,0-1.7,0v60.3c0,16.8,13.8,30.7,30.6,30.7h322.2c16.8,0,30.2-13.9,30.2-30.7V282.4
	z M345.3,268.9c-8.4,0-15.3-6.5-15.3-14.9v-44.9v-0.3l60.5,60.1H345.3z"/>
<path fill="#007EB6" d="M363,531.5c0,16.8-13.6,30.4-30.4,30.4H33.4C16.6,561.9,3,548.3,3,531.5V404.3c0-16.8,13.6-30.4,30.4-30.4
	h299.2c16.8,0,30.4,13.6,30.4,30.4V531.5z"/>
<text transform="matrix(1 0 0 1 29.4331 528.0635)"><tspan x="0" y="0" fill="#FFFFFF" font-family="'ExpertSans-Black'" font-size="164">X</tspan><tspan x="119.4" y="0" fill="#FFFFFF" font-family="'ExpertSans-Black'" font-size="164" letter-spacing="6">LS</tspan></text>
</svg>
