<?xml version="1.0" encoding="utf-8"?>
<!-- Generator: Adobe Illustrator 18.1.1, SVG Export Plug-In . SVG Version: 6.00 Build 0)  -->
<svg version="1.1" id="Layer_1" xmlns="http://www.w3.org/2000/svg" xmlns:xlink="http://www.w3.org/1999/xlink" x="0px" y="0px"
	 viewBox="0 0 595.3 841.9" enable-background="new 0 0 595.3 841.9" xml:space="preserve">
<path fill="#007EB6" d="M507.2,335.2H51.7c-9,0-16.3-11-16.3-24.5c0-13.5,7.3-24.5,16.3-24.5h455.7c9,0,16.3,11,16.3,24.5
	C523.6,324.2,516.2,335.2,507.2,335.2z"/>
<path fill="#007EB6" d="M51.7,400.3h455.7c9,0,16.3,11,16.3,24.5s-7.3,24.5-16.3,24.5H51.7c-9,0-16.3-11-16.3-24.5
	S42.7,400.3,51.7,400.3z"/>
<path fill="#007EB6" d="M51.7,506.7h455.7c9,0,16.3,11,16.3,24.5c0,13.5-7.3,24.5-16.3,24.5H51.7c-9,0-16.3-11-16.3-24.5
	C35.4,517.7,42.7,506.7,51.7,506.7z"/>
<path fill="#FFFFFF" d="M184.7,157.8l83.2-83.2c3-3,7.3-4.8,11.6-4.8c4.4,0,8.6,1.8,11.5,4.8l83.2,83.2c3,3,4.8,7.2,4.8,11.5
	c0,4.4-1.8,8.6-4.8,11.6l-9.4,9.6c-3,3-7.3,4.7-11.6,4.7s-8.6-1.8-11.5-4.7l-62.1-62.1l-62.1,62.1c-3,3-7.2,4.7-11.5,4.7
	c-4.4,0-8.6-1.8-11.6-4.7l-9.6-9.6c-3-3-4.7-7.3-4.7-11.6C180,165,181.8,160.8,184.7,157.8z"/>
<path fill="#007EB6" d="M374.4,700.3l-83.2,83.2c-3,3-7.3,4.8-11.6,4.8c-4.4,0-8.6-1.8-11.5-4.8l-83.2-83.2c-3-3-4.8-7.2-4.8-11.5
	s1.8-8.6,4.8-11.6l9.4-9.6c3-3,7.3-4.7,11.6-4.7s8.6,1.8,11.5,4.7l62.1,62.1l62.1-62.1c3-3,7.2-4.7,11.5-4.7c4.4,0,8.6,1.8,11.6,4.7
	l9.6,9.6c3,3,4.7,7.3,4.7,11.6C379.1,693.1,377.3,697.3,374.4,700.3z"/>
</svg>
