<?xml version="1.0" ?><svg height="64" preserveAspectRatio="xMidYMid" viewBox="0 0 49 64" width="49" xmlns="http://www.w3.org/2000/svg" xmlns:xlink="http://www.w3.org/1999/xlink"><defs><style>
      .cls-1 {
        fill: #7b0000;
      }

      .cls-1, .cls-2, .cls-3 {
        fill-rule: evenodd;
      }

      .cls-2 {
        fill: #fff;
      }

      .cls-3 {
        fill: #bf3939;
      }
    </style></defs><g><path class="cls-1" d="M49.000,16.842 L49.000,58.947 C49.000,61.738 46.730,64.000 43.931,64.000 L5.069,64.000 C2.269,64.000 -0.000,61.738 -0.000,58.947 L-0.000,5.053 C-0.000,2.262 2.269,-0.000 5.069,-0.000 L32.103,-0.000 L49.000,16.842 Z"/><path class="cls-2" d="M36.020,34.047 C35.585,33.903 35.164,33.830 34.759,33.830 C34.299,33.830 33.983,33.925 33.811,34.115 C33.638,34.305 33.552,34.641 33.552,35.124 L33.552,36.047 L35.485,36.047 L35.485,37.901 L33.552,37.901 L33.552,45.536 L31.210,45.536 L31.210,37.901 L30.003,37.901 L30.003,36.047 L31.210,36.047 L31.210,35.124 C31.210,33.948 31.502,33.098 32.086,32.573 C32.670,32.048 33.549,31.786 34.723,31.786 C35.273,31.786 35.857,31.861 36.474,32.012 L36.020,34.047 ZM28.778,33.830 C28.318,33.830 28.002,33.925 27.830,34.115 C27.657,34.305 27.571,34.641 27.571,35.124 L27.571,36.047 L29.504,36.047 L29.504,37.901 L27.571,37.901 L27.571,45.536 L25.230,45.536 L25.230,37.901 L24.023,37.901 L24.023,36.047 L25.230,36.047 L25.230,35.124 C25.230,33.948 25.522,33.098 26.106,32.573 C26.689,32.048 27.568,31.786 28.742,31.786 C29.292,31.786 29.876,31.861 30.493,32.012 L30.040,34.047 C29.604,33.903 29.184,33.830 28.778,33.830 ZM21.563,34.644 C21.067,34.644 20.730,34.542 20.551,34.337 C20.373,34.132 20.283,33.839 20.283,33.459 C20.283,33.037 20.380,32.734 20.574,32.550 C20.767,32.366 21.097,32.274 21.563,32.274 C22.035,32.274 22.374,32.363 22.579,32.541 C22.785,32.719 22.888,33.025 22.888,33.459 C22.888,33.900 22.779,34.207 22.561,34.382 C22.344,34.557 22.011,34.644 21.563,34.644 ZM14.974,45.075 C14.490,44.580 14.248,43.778 14.248,42.668 L14.248,37.901 L13.041,37.901 L13.041,36.047 L14.248,36.047 L14.248,33.405 L16.589,33.405 L16.589,36.047 L18.804,36.047 L18.804,37.901 L16.589,37.901 L16.589,42.370 C16.589,42.961 16.682,43.362 16.866,43.573 C17.051,43.784 17.312,43.889 17.651,43.889 C18.081,43.889 18.507,43.802 18.931,43.627 L19.339,45.536 C18.710,45.723 18.047,45.816 17.352,45.816 C16.251,45.816 15.458,45.569 14.974,45.075 ZM22.752,45.536 L20.410,45.536 L20.410,36.047 L22.752,36.047 L22.752,45.536 Z"/><path class="cls-3" d="M49.000,15.899 L49.000,17.995 L35.187,17.995 C32.327,17.995 31.008,15.675 31.008,12.814 L31.008,-0.000 L33.100,-0.000 L49.000,15.899 Z"/></g></svg>