<?xml version="1.0" encoding="UTF-8" standalone="no"?>
<svg width="25px" height="25px" viewBox="0 0 25 25" version="1.1" xmlns="http://www.w3.org/2000/svg" xmlns:xlink="http://www.w3.org/1999/xlink">
    <!-- Generator: Sketch 41.2 (35397) - http://www.bohemiancoding.com/sketch -->
    <title>Slice 1</title>
    <desc>Created with Sketch.</desc>
    <defs></defs>
    <g id="Page-1" stroke="none" stroke-width="1" fill="none" fill-rule="evenodd">
        <g id="tick-inverted">
            <g id="Imported-Layers">
                <path d="M12.5,2.4 C18,2.4 22.5,6.9 22.5,12.4 C22.5,17.9 18,22.4 12.5,22.4 C7,22.4 2.5,17.9 2.5,12.4 C2.5,6.9 7,2.4 12.5,2.4 M12.5,0.4 C5.9,0.4 0.5,5.8 0.5,12.4 C0.5,19 5.9,24.4 12.5,24.4 C19.1,24.4 24.5,19 24.5,12.4 C24.5,5.8 19.1,0.4 12.5,0.4" id="Fill-1" fill="#72A309"></path>
                <path d="M12.5,0.4 C5.9,0.4 0.5,5.8 0.5,12.4 C0.5,19 5.9,24.4 12.5,24.4 C19.1,24.4 24.5,19 24.5,12.4 C24.5,5.8 19.1,0.4 12.5,0.4 L12.5,0.4 Z" id="Fill-3" fill="#72A309"></path>
                <polyline id="Fill-2" fill="#FFFFFF" points="10.9 14.7 7.1 10.9 5.7 12.3 10.9 17.5 19.4 9 18 7.6 10.9 14.7"></polyline>
            </g>
        </g>
    </g>
</svg>